<?xml version="1.0" encoding="utf-8"?>
<!-- Generator: Adobe Illustrator 16.0.0, SVG Export Plug-In . SVG Version: 6.00 Build 0)  -->
<!DOCTYPE svg PUBLIC "-//W3C//DTD SVG 1.1 Tiny//EN" "http://www.w3.org/Graphics/SVG/1.1/DTD/svg11-tiny.dtd">
<svg version="1.1" baseProfile="tiny" id="Layer_1" xmlns="http://www.w3.org/2000/svg" xmlns:xlink="http://www.w3.org/1999/xlink"
	 x="0px" y="0px" width="242px" height="153.7px" viewBox="0 0 242 153.7" xml:space="preserve">
<g>
	<g>
		<g>
			<g>
				<path fill="#706F6F" d="M22.2,102.9c-0.6-4-4-6.6-8.3-6.6c-4.7,0-8.1,2.2-8.1,6c0,3.8,4.6,4.9,8.6,6c3.9,1,9.9,2.5,9.9,8.5
					c0,4.7-4,8.1-10.2,8.1c-6.3,0-10-3.8-10.4-8.4l1.5-0.4c0.2,4,3.4,7.3,8.9,7.3c5.2,0,8.6-2.8,8.6-6.6c0-5.2-5.8-6.2-9.9-7.3
					c-3.3-0.9-8.6-2.2-8.6-7.1c0-4.5,4.1-7.5,9.7-7.5c5.1,0,9.1,2.9,9.9,7.6L22.2,102.9z"/>
				<path fill="#706F6F" d="M45.5,94.8c8.3,0,15,6.3,15,15c0,8.7-6.7,15-15,15c-8.3,0-15-6.3-15-15C30.5,101.2,37.2,94.8,45.5,94.8z
					 M45.5,123.4c7.4,0,13.4-5.5,13.4-13.5c0-8.1-6-13.5-13.4-13.5c-7.5,0-13.4,5.4-13.4,13.5C32.1,117.8,38,123.4,45.5,123.4z"/>
				<path fill="#706F6F" d="M94,102.8c-2.3-4-6.6-6.4-11.5-6.4c-7.5,0-13.4,5.4-13.4,13.5c0,8,5.9,13.4,13.4,13.4
					c5.2,0,9.7-2.8,12-7.2l1.6,0.5c-2.4,5.1-7.5,8.3-13.5,8.3c-8.3,0-15-6.3-15-15c0-8.7,6.7-15,15-15c5.7,0,10.5,2.9,13.1,7.5
					L94,102.8z"/>
				<path fill="#706F6F" d="M103.3,124.3V95.4h1.6v28.9H103.3z"/>
				<path fill="#706F6F" d="M134,115.2h-15.9l-4,9.1h-1.7l13-28.9h1.4l13,28.9H138L134,115.2z M133.3,113.8l-5.9-13.3
					c-0.6-1.4-1.3-3.1-1.3-3.1h0c0,0-0.7,1.7-1.3,3.1l-5.9,13.3H133.3z"/>
				<path fill="#706F6F" d="M165.2,122.8v1.5h-18V95.4h1.6v27.4H165.2z"/>
				<path fill="#706F6F" d="M192.1,95.4v3.2h-9.7v25.7h-3.3V98.6h-9.7v-3.2H192.1z"/>
				<path fill="#706F6F" d="M199.3,124.3V95.4h3.4v28.9H199.3z"/>
				<path fill="#706F6F" d="M235.3,103.3c-2-3.2-5.7-5.2-9.7-5.2c-6.6,0-11.5,4.7-11.5,11.7c0,7,5,11.7,11.5,11.7
					c4.4,0,8.3-2.4,10.2-6l3.3,0.9c-2.4,5.1-7.5,8.4-13.5,8.4c-8.3,0-15-6.3-15-15c0-8.7,6.7-15,15-15c5.7,0,10.5,3,13.1,7.6
					L235.3,103.3z"/>
			</g>
		</g>
	</g>
	<path fill="#80368A" d="M139.6,53.5l-6.8,1.8c-4.6,7-14.4,9.3-21.8,5.6l-4.8,1.3c2.4,1.7,5.1,2.9,8,3.5
		C124.4,67.9,134.7,62.7,139.6,53.5z M114.2,65.7C112.1,65.2,116.3,66.1,114.2,65.7L114.2,65.7z M97.4,32.7
		C97.2,32.9,97.4,32.7,97.4,32.7c5.1-3.6,10.8-5.2,17.2-4.6c5.5,0.6,10.3,2.9,14.6,6.2c3,2.8,5.3,5.9,6,10.1l7.2,0
		c0.2-2.1,0.2-4.2-0.2-6.3c0.1,0.5,0.2,1,0,0c-0.2-1.2-0.1-0.6,0,0c-2.7-13.8-16.8-22.4-30.4-20.3c-13.3,2-23.6,13.6-25.6,26.7
		l4.1,0C91.3,39.7,93.8,35.9,97.4,32.7z M131.9,72.7c-12.2,6.1-28.4,3.2-37-7.6L91.6,66c9.9,13.2,28.9,17,43.5,10
		c10.5-5.1,18.3-15.1,20.5-26.6l-8,2.1C146.1,60.7,140.3,68.6,131.9,72.7z M87.6,23.3c5.4-4.4,11.3-7.6,18.3-8.8
		c6.6-1.1,13.4-0.3,19.6,2c11.8,4.4,21.2,14.9,22.3,27.8l8.3,0C157,29.7,148.8,17,136.4,10c-12.9-7.3-29.5-6.9-42.2,0.8
		c-12.2,7.4-19.3,19.6-21.6,33.6l4,0C78.3,36,81.9,29.1,87.6,23.3C87.5,23.4,87.7,23.2,87.6,23.3z M128.1,40.6
		c0-0.1-0.1-0.2-0.1-0.1c-2.6-6.5-10.1-10-16.9-8.4c-6,1.5-10.4,6.5-11.8,12.3l5.5,0c0.6-0.9,1.4-1.5,2.3-2.2c0,0,0.1-0.1-0.1,0.1
		c2.4-1.5,5.1-2.1,7.9-1.8c2.6,0.3,6.3,1.3,7.5,4l6.1,0c0-1.3-0.1-2.4-0.4-3.6C128.1,40.8,128.2,40.8,128.1,40.6z M167.8,44.3
		c-2.7,0-11.6,0-11.6,0l-0.6,5c0,0,9.5-2.5,12.4-3.2C171,45.4,170.6,44.3,167.8,44.3z"/>
	<g>
		<path fill="#80368A" d="M7.2,138.4H3.7v-0.5h7.5v0.5H7.8v8.8H7.2V138.4z"/>
		<path fill="#80368A" d="M14,140.4c1.8,0,2.7,1.4,2.7,3c0,0.1,0,0.4,0,0.4h-5.3c0,1.9,1.3,3,2.8,3c1.3,0,2.1-0.8,2.1-0.8l0.3,0.5
			c0,0-0.9,0.9-2.4,0.9c-1.9,0-3.4-1.4-3.4-3.5C10.7,141.6,12.3,140.4,14,140.4z M16.1,143.3c-0.1-1.6-1-2.4-2.1-2.4
			c-1.2,0-2.4,0.8-2.6,2.4H16.1z"/>
		<path fill="#80368A" d="M21.5,140.4c1.6,0,2.4,0.9,2.4,0.9l-0.3,0.5c0,0-0.8-0.9-2-0.9c-1.6,0-2.8,1.2-2.8,3
			c0,1.8,1.3,2.9,2.8,2.9c1.5,0,2.2-1,2.2-1l0.3,0.5c0,0-0.9,1-2.5,1c-1.9,0-3.4-1.4-3.4-3.5C18.1,141.8,19.7,140.4,21.5,140.4z"/>
		<path fill="#80368A" d="M25.9,140.5h0.6v1.2c0,0.3-0.1,0.5-0.1,0.5h0c0.2-0.6,1.2-1.9,2.8-1.9c1.7,0,2.2,1,2.2,2.6v4.2h-0.6v-4
			c0-1.2-0.1-2.2-1.6-2.2c-1.3,0-2.4,0.9-2.7,2.1c-0.1,0.3-0.1,0.6-0.1,0.9v3.2h-0.6V140.5z"/>
		<path fill="#80368A" d="M36.6,140.4c1.9,0,3.4,1.5,3.4,3.4c0,2-1.5,3.5-3.4,3.5c-1.9,0-3.4-1.5-3.4-3.5
			C33.2,141.9,34.7,140.4,36.6,140.4z M36.6,146.8c1.6,0,2.9-1.3,2.9-3c0-1.7-1.3-2.9-2.9-2.9c-1.6,0-2.9,1.3-2.9,2.9
			C33.8,145.5,35.1,146.8,36.6,146.8z"/>
		<path fill="#80368A" d="M41.9,137.9h0.6v7.8c0,0.9,0.5,1,0.8,1c0.1,0,0.2,0,0.2,0v0.5c0,0-0.1,0-0.2,0c-0.4,0-1.3-0.1-1.3-1.4
			V137.9z"/>
		<path fill="#80368A" d="M48,140.4c1.9,0,3.4,1.5,3.4,3.4c0,2-1.5,3.5-3.4,3.5c-1.9,0-3.4-1.5-3.4-3.5
			C44.5,141.9,46.1,140.4,48,140.4z M48,146.8c1.6,0,2.9-1.3,2.9-3c0-1.7-1.3-2.9-2.9-2.9c-1.6,0-2.9,1.3-2.9,2.9
			C45.1,145.5,46.4,146.8,48,146.8z"/>
		<path fill="#80368A" d="M55.5,149.4c1.4,0,2.5-0.7,2.5-2.3v-0.8c0-0.3,0.1-0.5,0.1-0.5h0c-0.4,0.8-1.1,1.4-2.2,1.4
			c-1.7,0-3-1.4-3-3.4c0-2.1,1.1-3.4,2.9-3.4c1.9,0,2.3,1.3,2.3,1.3h0c0,0,0-0.1,0-0.3v-0.9h0.6v6.6c0,2-1.5,2.8-3,2.8
			c-0.7,0-1.4-0.2-2.1-0.5l0.3-0.5C53.7,149,54.5,149.4,55.5,149.4z M58,143.8c0-2.1-1-2.8-2.3-2.8c-1.4,0-2.3,1-2.3,2.8
			c0,1.8,1,2.9,2.4,2.9C57,146.6,58,145.9,58,143.8z"/>
		<path fill="#80368A" d="M61.8,137.9h0.7l-1.1,1.5h-0.6L61.8,137.9z M60.9,140.5h0.6v6.7h-0.6V140.5z"/>
		<path fill="#80368A" d="M67.4,143.1h0.4v-0.2c0-1.5-0.8-2-1.8-2c-1.2,0-1.9,0.6-1.9,0.6l-0.3-0.5c0,0,0.8-0.7,2.3-0.7
			c1.5,0,2.4,0.9,2.4,2.5v4.3h-0.6v-0.9c0-0.4,0.1-0.6,0.1-0.6h0c0,0-0.6,1.6-2.3,1.6c-1.1,0-2.3-0.6-2.3-1.9
			C63.2,143.2,66.2,143.1,67.4,143.1z M65.5,146.8c1.5,0,2.3-1.5,2.3-2.8v-0.4h-0.4c-1.1,0-3.6,0-3.6,1.7
			C63.8,146.1,64.4,146.8,65.5,146.8z"/>
		<path fill="#80368A" d="M76.8,140.4c1.7,0,2.3,1.5,2.3,1.5h0c0,0-0.1-0.2-0.1-0.5v-3.5h0.6v9.3h-0.6v-0.8c0-0.3,0.1-0.5,0.1-0.5h0
			c0,0-0.6,1.5-2.4,1.5c-1.8,0-2.9-1.4-2.9-3.5C73.9,141.7,75.1,140.4,76.8,140.4z M76.8,146.8c1.2,0,2.4-0.9,2.4-3
			c0-1.5-0.8-2.9-2.3-2.9c-1.3,0-2.4,1.1-2.4,2.9C74.5,145.7,75.4,146.8,76.8,146.8z"/>
		<path fill="#80368A" d="M82,137.9h0.7v1H82V137.9z M82,140.5h0.6v6.7H82V140.5z"/>
		<path fill="#80368A" d="M87.1,149.4c1.4,0,2.5-0.7,2.5-2.3v-0.8c0-0.3,0.1-0.5,0.1-0.5h0c-0.4,0.8-1.1,1.4-2.2,1.4
			c-1.7,0-3-1.4-3-3.4c0-2.1,1.1-3.4,2.9-3.4c1.9,0,2.3,1.3,2.3,1.3h0c0,0,0-0.1,0-0.3v-0.9h0.6v6.6c0,2-1.5,2.8-3,2.8
			c-0.7,0-1.4-0.2-2.1-0.5l0.3-0.5C85.3,149,86.2,149.4,87.1,149.4z M89.7,143.8c0-2.1-1-2.8-2.3-2.8c-1.4,0-2.3,1-2.3,2.8
			c0,1.8,1,2.9,2.4,2.9C88.7,146.6,89.7,145.9,89.7,143.8z"/>
		<path fill="#80368A" d="M92.5,137.9h0.7v1h-0.7V137.9z M92.6,140.5h0.6v6.7h-0.6V140.5z"/>
		<path fill="#80368A" d="M95.7,141.1h-0.9v-0.5h0.9v-1.9h0.6v1.9H98v0.5h-1.7v3.7c0,1.8,1.1,2,1.6,2c0.2,0,0.3,0,0.3,0v0.5
			c0,0-0.1,0-0.3,0c-0.7,0-2.1-0.3-2.1-2.5V141.1z"/>
		<path fill="#80368A" d="M103.2,143.1h0.4v-0.2c0-1.5-0.8-2-1.8-2c-1.2,0-1.9,0.6-1.9,0.6l-0.3-0.5c0,0,0.8-0.7,2.2-0.7
			c1.5,0,2.4,0.9,2.4,2.5v4.3h-0.6v-0.9c0-0.4,0.1-0.6,0.1-0.6h0c0,0-0.6,1.6-2.3,1.6c-1.1,0-2.3-0.6-2.3-1.9
			C99.1,143.2,102,143.1,103.2,143.1z M101.4,146.8c1.5,0,2.3-1.5,2.3-2.8v-0.4h-0.4c-1.1,0-3.6,0-3.6,1.7
			C99.7,146.1,100.3,146.8,101.4,146.8z"/>
		<path fill="#80368A" d="M106.4,137.9h0.6v7.8c0,0.9,0.5,1,0.8,1c0.1,0,0.2,0,0.2,0v0.5c0,0-0.1,0-0.2,0c-0.4,0-1.3-0.1-1.3-1.4
			V137.9z"/>
		<path fill="#80368A" d="M113.2,140.5h0.6v0.8c0,0.3,0,0.5,0,0.5h0c0,0,0.5-1.5,2.4-1.5c1.8,0,2.9,1.4,2.9,3.5c0,2.1-1.2,3.5-3,3.5
			c-1.7,0-2.3-1.5-2.3-1.5h0c0,0,0.1,0.2,0.1,0.6v3.4h-0.6V140.5z M116.1,146.8c1.3,0,2.4-1.1,2.4-2.9c0-1.8-1-2.9-2.3-2.9
			c-1.2,0-2.4,0.9-2.4,3C113.8,145.4,114.6,146.8,116.1,146.8z"/>
		<path fill="#80368A" d="M124.5,143.1h0.4v-0.2c0-1.5-0.8-2-1.8-2c-1.2,0-1.9,0.6-1.9,0.6l-0.3-0.5c0,0,0.8-0.7,2.3-0.7
			c1.5,0,2.4,0.9,2.4,2.5v4.3H125v-0.9c0-0.4,0.1-0.6,0.1-0.6h0c0,0-0.6,1.6-2.3,1.6c-1.1,0-2.3-0.6-2.3-1.9
			C120.4,143.2,123.3,143.1,124.5,143.1z M122.7,146.8c1.5,0,2.3-1.5,2.3-2.8v-0.4h-0.4c-1.1,0-3.6,0-3.6,1.7
			C121,146.1,121.5,146.8,122.7,146.8z"/>
		<path fill="#80368A" d="M127.8,140.5h0.6v1.3c0,0.3-0.1,0.5-0.1,0.5h0c0.3-1,1.1-1.9,2.1-1.9c0.2,0,0.4,0,0.4,0v0.6
			c0,0-0.2,0-0.3,0c-1,0-1.7,0.9-2,1.9c-0.1,0.5-0.2,1-0.2,1.4v2.9h-0.6V140.5z"/>
		<path fill="#80368A" d="M135.8,143.1h0.4v-0.2c0-1.5-0.8-2-1.8-2c-1.2,0-1.9,0.6-1.9,0.6l-0.3-0.5c0,0,0.8-0.7,2.3-0.7
			c1.5,0,2.4,0.9,2.4,2.5v4.3h-0.6v-0.9c0-0.4,0.1-0.6,0.1-0.6h0c0,0-0.6,1.6-2.3,1.6c-1.1,0-2.3-0.6-2.3-1.9
			C131.7,143.2,134.7,143.1,135.8,143.1z M134,146.8c1.5,0,2.3-1.5,2.3-2.8v-0.4h-0.4c-1.1,0-3.6,0-3.6,1.7
			C132.3,146.1,132.9,146.8,134,146.8z"/>
		<path fill="#80368A" d="M145.5,140.4c1.8,0,2.7,1.4,2.7,3c0,0.1,0,0.4,0,0.4h-5.3c0,1.9,1.3,3,2.8,3c1.3,0,2.1-0.8,2.1-0.8
			l0.3,0.5c0,0-0.9,0.9-2.4,0.9c-1.9,0-3.4-1.4-3.4-3.5C142.3,141.6,143.8,140.4,145.5,140.4z M147.7,143.3c-0.1-1.6-1-2.4-2.1-2.4
			c-1.2,0-2.4,0.8-2.6,2.4H147.7z"/>
		<path fill="#80368A" d="M150.1,137.9h0.6v7.8c0,0.9,0.5,1,0.8,1c0.1,0,0.2,0,0.2,0v0.5c0,0-0.1,0-0.2,0c-0.4,0-1.3-0.1-1.3-1.4
			V137.9z"/>
		<path fill="#80368A" d="M159.9,140.4c1.6,0,2.4,0.9,2.4,0.9l-0.3,0.5c0,0-0.8-0.9-2-0.9c-1.6,0-2.8,1.2-2.8,3
			c0,1.8,1.3,2.9,2.8,2.9c1.5,0,2.2-1,2.2-1l0.3,0.5c0,0-0.9,1-2.5,1c-1.9,0-3.4-1.4-3.4-3.5C156.4,141.8,158,140.4,159.9,140.4z"/>
		<path fill="#80368A" d="M167.8,143.1h0.4v-0.2c0-1.5-0.8-2-1.8-2c-1.2,0-1.9,0.6-1.9,0.6l-0.3-0.5c0,0,0.8-0.7,2.2-0.7
			c1.5,0,2.4,0.9,2.4,2.5v4.3h-0.6v-0.9c0-0.4,0.1-0.6,0.1-0.6h0c0,0-0.6,1.6-2.3,1.6c-1.1,0-2.3-0.6-2.3-1.9
			C163.7,143.2,166.6,143.1,167.8,143.1z M166,146.8c1.5,0,2.3-1.5,2.3-2.8v-0.4h-0.4c-1.1,0-3.6,0-3.6,1.7
			C164.3,146.1,164.8,146.8,166,146.8z"/>
		<path fill="#80368A" d="M171.1,140.5h0.6v1.2c0,0.3-0.1,0.5-0.1,0.5h0c0.3-1,1.5-1.9,2.6-1.9c1.3,0,2,0.6,2.1,1.8h0
			c0.4-0.9,1.4-1.8,2.5-1.8c1.7,0,2.2,1,2.2,2.6v4.2h-0.6v-4c0-1.3-0.3-2.3-1.7-2.3c-1.1,0-2,1-2.3,2c-0.1,0.3-0.1,0.6-0.1,1v3.2
			h-0.6v-4c0-1.1-0.2-2.3-1.6-2.3c-1.2,0-2.1,1-2.4,2.1c-0.1,0.3-0.1,0.6-0.1,0.9v3.2h-0.6V140.5z"/>
		<path fill="#80368A" d="M183.3,137.9h0.6v3.5c0,0.3-0.1,0.5-0.1,0.5h0c0,0,0.6-1.5,2.4-1.5c1.8,0,2.9,1.4,2.9,3.5
			c0,2.1-1.2,3.5-3,3.5c-1.7,0-2.3-1.5-2.3-1.5h0c0,0,0.1,0.2,0.1,0.6v0.8h-0.6V137.9z M186.1,146.8c1.3,0,2.4-1.1,2.4-2.9
			c0-1.8-1-2.9-2.3-2.9c-1.2,0-2.4,0.9-2.4,3C183.8,145.4,184.6,146.8,186.1,146.8z"/>
		<path fill="#80368A" d="M190.9,137.9h0.7v1h-0.7V137.9z M191,140.5h0.6v6.7H191V140.5z"/>
		<path fill="#80368A" d="M196.8,140.4c1.9,0,3.4,1.5,3.4,3.4c0,2-1.5,3.5-3.4,3.5c-1.9,0-3.4-1.5-3.4-3.5
			C193.4,141.9,194.9,140.4,196.8,140.4z M196.8,146.8c1.6,0,2.9-1.3,2.9-3c0-1.7-1.3-2.9-2.9-2.9c-1.6,0-2.9,1.3-2.9,2.9
			C194,145.5,195.3,146.8,196.8,146.8z"/>
		<path fill="#80368A" d="M205.6,146c0,0,0.7,0.8,2.1,0.8c0.8,0,1.5-0.4,1.5-1.3c0-1.7-3.7-1.2-3.7-3.4c0-1.2,1-1.8,2.1-1.8
			c1.4,0,2,0.7,2,0.7l-0.3,0.5c0,0-0.5-0.6-1.7-0.6c-0.8,0-1.5,0.3-1.5,1.2c0,1.7,3.7,1.2,3.7,3.4c0,1.1-0.9,1.8-2.1,1.8
			c-1.6,0-2.4-1-2.4-1L205.6,146z"/>
		<path fill="#80368A" d="M214.6,140.4c1.9,0,3.4,1.5,3.4,3.4c0,2-1.5,3.5-3.4,3.5s-3.4-1.5-3.4-3.5
			C211.1,141.9,212.7,140.4,214.6,140.4z M214.6,146.8c1.6,0,2.9-1.3,2.9-3c0-1.7-1.3-2.9-2.9-2.9c-1.6,0-2.9,1.3-2.9,2.9
			C211.7,145.5,213,146.8,214.6,146.8z"/>
		<path fill="#80368A" d="M222.9,140.4c1.6,0,2.4,0.9,2.4,0.9l-0.3,0.5c0,0-0.8-0.9-2-0.9c-1.6,0-2.8,1.2-2.8,3
			c0,1.8,1.3,2.9,2.8,2.9c1.5,0,2.2-1,2.2-1l0.3,0.5c0,0-0.9,1-2.5,1c-1.9,0-3.4-1.4-3.4-3.5C219.4,141.8,221,140.4,222.9,140.4z"/>
		<path fill="#80368A" d="M227.2,137.9h0.7v1h-0.7V137.9z M227.2,140.5h0.6v6.7h-0.6V140.5z"/>
		<path fill="#80368A" d="M233.7,143.1h0.4v-0.2c0-1.5-0.8-2-1.8-2c-1.2,0-1.9,0.6-1.9,0.6l-0.3-0.5c0,0,0.8-0.7,2.2-0.7
			c1.5,0,2.4,0.9,2.4,2.5v4.3h-0.6v-0.9c0-0.4,0.1-0.6,0.1-0.6h0c0,0-0.6,1.6-2.3,1.6c-1.1,0-2.3-0.6-2.3-1.9
			C229.6,143.2,232.5,143.1,233.7,143.1z M231.9,146.8c1.5,0,2.3-1.5,2.3-2.8v-0.4h-0.4c-1.1,0-3.6,0-3.6,1.7
			C230.2,146.1,230.7,146.8,231.9,146.8z"/>
		<path fill="#80368A" d="M236.9,137.9h0.6v7.8c0,0.9,0.5,1,0.8,1c0.1,0,0.2,0,0.2,0v0.5c0,0-0.1,0-0.2,0c-0.4,0-1.3-0.1-1.3-1.4
			V137.9z"/>
	</g>
</g>
</svg>
